<svg width="84" height="109" viewBox="0 0 84 109" xmlns="http://www.w3.org/2000/svg" xmlns:xlink="http://www.w3.org/1999/xlink"><title>Combined Shape</title><defs><linearGradient x1="60.396%" y1="1.093%" x2="39.604%" y2="98.907%" id="c"><stop stop-color="#B1B1B1" offset="0%"/><stop stop-color="#C4C4C4" offset="100%"/></linearGradient><path d="M727.238 474.719c-2.885 3.434-7.46 11.734-8.92 11.027-1.66-.804 3.379-25.246 3.379-29.878 0-1.012-.612-1.843-.985-2.302-1.476-1.814-6.482-2.837-9.02-.775-3.726 3.027-3.357 11.864-3.357 14.288 0 .99.04 4.148.166 7.76-5.51 8.412-14.063 21.198-17.625 20.164-3.22-.934-4.835-9.464-3.608-17.8.734-4.987 3.028-9.453 5.099-13.437 5.533-10.644 7.882-11.072 13.753-28.087 5.87-17.015 9.779-26.887 7.216-33.171-2.562-6.284-12.745-11.824-19.695 2.572-6.95 14.396-14.894 39.995-15.62 70.58-.507 21.375 8.118 24.768 16.154 23.358 4.469-.784 10.436-10.763 14.551-19.236.214 3.688.538 7.06 1.017 8.38 1.17 3.217 5.594 4.786 9.204 3.217.592-.257 1.317-.891 2.107-1.776.599-.315 1.272-1.132 2.02-2.453l.475-.822a60.766 60.766 0 0 0 3.78-6.444l.136-.23a237.186 237.186 0 0 0 2.993-5.174 281.268 281.268 0 0 1 2.86-4.975c.976 0 2.373-.11 4.19-.332 1.819-.221 4.014-.685 6.586-1.393a459.212 459.212 0 0 0-4.723 6.037 621.782 621.782 0 0 0-6.585 8.69 514.577 514.577 0 0 0-6.851 9.42c-2.262 3.184-4.102 5.882-5.52 8.093-.533.796-.755 1.393-.666 1.79.089.399.31.642.665.73.355.089.776.045 1.264-.132s.91-.442 1.264-.796c1.33-1.238 2.793-1.813 4.39-1.725 1.596.089 3.237.442 4.922 1.062a199.49 199.49 0 0 1 5.188 1.99c1.774.707 3.46 1.061 5.056 1.061 1.862 0 3.658-.575 5.387-1.725 1.73-1.15 3.37-2.587 4.922-4.312a37.95 37.95 0 0 0 4.124-5.506c1.198-1.946 2.196-3.714 2.994-5.307.887-1.68.93-2.63.133-2.852-.798-.221-1.597.376-2.395 1.791a78.61 78.61 0 0 1-1.862 3.118 35.252 35.252 0 0 1-2.727 3.781 18.748 18.748 0 0 1-3.326 3.184c-1.198.885-2.417 1.327-3.659 1.327-1.241 0-2.572-.31-3.99-.929a53.562 53.562 0 0 0-4.524-1.724 17.112 17.112 0 0 0-4.988-.863c-1.73-.044-3.526.509-5.388 1.659 2.394-3.008 5.255-6.236 8.58-9.686 3.326-3.45 6.63-6.744 9.911-9.884 3.282-3.14 6.364-5.904 9.246-8.292 2.882-2.388 5.077-4.024 6.585-4.909.532-.265.62-.575.266-.929-.355-.353-.931-.64-1.73-.862a11.607 11.607 0 0 0-2.527-.398c-.887-.044-1.596.066-2.128.332a129.664 129.664 0 0 1-10.31 3.98c-3.415 1.15-6.718 1.725-9.911 1.725a31.065 31.065 0 0 0 2.062-3.715c.576-1.238.975-2.366 1.197-3.383.222-1.018.155-1.836-.2-2.455-.354-.619-1.064-.929-2.128-.929-1.242 0-2.55.62-3.924 1.858-1.375 1.238-2.462 2.61-3.26 4.113-.798 1.503-1.153 2.985-1.064 4.444.089 1.46.887 2.366 2.395 2.72l-3.021 5.347zm-9.795-27.29c3.02.642 5.776-.289 6.624-4.28.849-3.991-1.29-5.962-4.31-6.604-3.02-.642-5.764.23-6.624 4.28-.861 4.05 1.29 5.962 4.31 6.604zm-10.828-41.02c-3.258.193-8.351 16.494-11.146 26.219-2.796 9.725-6.305 22.776-4.004 23.575 2.301.8 8.516-12.576 11.496-22.943 2.98-10.368 6.912-27.045 3.654-26.852zm26.593 58.155c1.209-1.368 2.792-3.604 2.151-4.272-.602-.628-1.651-.278-2.434.763-.86 1.144-1.599 3.092-1.599 3.51 0 .417.674 1.368 1.882 0z" id="b"/><filter x="-50%" y="-50%" width="200%" height="200%" filterUnits="objectBoundingBox" id="a"><feOffset dy="1" in="SourceAlpha" result="shadowOffsetOuter1"/><feColorMatrix values="0 0 0 0 1 0 0 0 0 1 0 0 0 0 1 0 0 0 0.295912591 0" in="shadowOffsetOuter1"/></filter></defs><g transform="translate(-678 -396)" fill="none" fill-rule="evenodd"><use fill="#000" filter="url(#a)" xlink:href="#b"/><use fill="url(#c)" xlink:href="#b"/></g></svg>