<svg width="70" height="35" viewBox="0 0 70 35" xmlns="http://www.w3.org/2000/svg"><title>Artboard 3</title><g fill="none" fill-rule="evenodd"><path d="M0 0h35v35H0z"/><path d="M23 12.13h-2.857c-.338 0-.714.443-.714 1.038v2.063H23v2.94h-3.571V27h-3.373v-8.83H13v-2.94h3.056V13.5c0-2.481 1.723-4.5 4.087-4.5H23v3.13z" fill="#FFF"/><path d="M35 0h35v35H35z"/><path d="M62 12.775a7.28 7.28 0 0 1-2.121.597 3.783 3.783 0 0 0 1.624-2.095 7.283 7.283 0 0 1-2.346.918A3.645 3.645 0 0 0 56.461 11c-2.04 0-3.693 1.695-3.693 3.786 0 .297.033.586.096.863-3.069-.158-5.791-1.665-7.612-3.956a3.85 3.85 0 0 0-.5 1.904c0 1.314.652 2.472 1.643 3.151a3.62 3.62 0 0 1-1.673-.474v.048c0 1.836 1.274 3.364 2.963 3.713a3.585 3.585 0 0 1-1.667.066c.47 1.503 1.834 2.598 3.45 2.63A7.298 7.298 0 0 1 44 24.298 10.26 10.26 0 0 0 49.66 26c6.794 0 10.508-5.77 10.508-10.774 0-.163-.003-.327-.01-.49A7.613 7.613 0 0 0 62 12.775z" fill="#FFF"/></g></svg>